inDegrees=no
num_controls=7
num_derivatives=13
num_iterations=117
num_multipliers=7
num_parameters=0
num_slacks=7
num_states=26
objective=0.516825
objective_accelerations=0.040163
objective_balance=0.002270
objective_effort=0.044340
objective_height=0.418428
objective_ligament=0.011623
solver_duration=1577.868209
status=Solve_Succeeded
success=true
DataType=double
version=3
OpenSimVersion=4.5
endheader
time	/jointset/ground_pelvis/pelvis_tilt/value	/jointset/ground_pelvis/pelvis_tx/value	/jointset/ground_pelvis/pelvis_ty/value	/jointset/hip_l/hip_flexion_l/value	/jointset/hip_l/hip_adduction_l/value	/jointset/hip_l/hip_rotation_l/value	/jointset/back/lumbar_extension/value	/jointset/patellofemoral_l/patellar_flexion_l/value	/jointset/knee_l/knee_flexion_l/value	/jointset/knee_l/knee_adduction_l/value	/jointset/knee_l/knee_rotation_l/value	/jointset/ankle_l/ankle_angle_l/value	/jointset/subtalar_l/subtalar_angle_l/value	/jointset/ground_pelvis/pelvis_tilt/speed	/jointset/ground_pelvis/pelvis_tx/speed	/jointset/ground_pelvis/pelvis_ty/speed	/jointset/hip_l/hip_flexion_l/speed	/jointset/hip_l/hip_adduction_l/speed	/jointset/hip_l/hip_rotation_l/speed	/jointset/back/lumbar_extension/speed	/jointset/patellofemoral_l/patellar_flexion_l/speed	/jointset/knee_l/knee_flexion_l/speed	/jointset/knee_l/knee_adduction_l/speed	/jointset/knee_l/knee_rotation_l/speed	/jointset/ankle_l/ankle_angle_l/speed	/jointset/subtalar_l/subtalar_angle_l/speed	/forceset/tau_hip_flexion_l	/forceset/tau_hip_adduction_l	/forceset/tau_hip_rotation_l	/forceset/tau_knee_flexion_l	/forceset/tau_ankle_angle_l	/forceset/tau_subtalar_angle_l	/forceset/tau_lumbar_extension	lambda_cid13_p0	lambda_cid13_p1	lambda_cid13_p2	lambda_cid13_p3	lambda_cid13_p4	lambda_cid13_p5	lambda_cid14_p0	/jointset/ground_pelvis/pelvis_tilt/accel	/jointset/ground_pelvis/pelvis_tx/accel	/jointset/ground_pelvis/pelvis_ty/accel	/jointset/hip_l/hip_flexion_l/accel	/jointset/hip_l/hip_adduction_l/accel	/jointset/hip_l/hip_rotation_l/accel	/jointset/back/lumbar_extension/accel	/jointset/patellofemoral_l/patellar_flexion_l/accel	/jointset/knee_l/knee_flexion_l/accel	/jointset/knee_l/knee_adduction_l/accel	/jointset/knee_l/knee_rotation_l/accel	/jointset/ankle_l/ankle_angle_l/accel	/jointset/subtalar_l/subtalar_angle_l/accel	gamma_cid13_p0	gamma_cid13_p1	gamma_cid13_p2	gamma_cid13_p3	gamma_cid13_p4	gamma_cid13_p5	gamma_cid14_p0
0	-0.03679200928609939	0.05666403055567318	0.9203421514501005	0.3085816938045678	-0.2956311791951925	-0.3014086389788778	-0.3879492264334186	0.2499269421185106	0.2499269421184919	-0.174532428953682	-0.174337748517627	-0.0008036623358878681	0.0004446884489090597	0	0	0	0	0	0	0	0	0	0	0	0	0	0.05644236098463067	-0.03098561867763644	-0.01640491654060523	-0.2141552032096616	0.1410599777600736	-0.01069928217101592	0.0132604928342337	1.319099031755423	1.42894021543292	2.729516816213387	25.58607417238149	-629.2518298137562	-71.46579326949735	-23.19036344701406	-1.326751573933071	-2.232772554128726	-0.8485276131486341	8.853399411466478	-0.5161370442968107	2.627570224885423	-6.861418625877421	7.518814644762087	7.518814644763597	1.33464399785587	-0.0545040861977909	0.4622791571070843	-0.4075498784836484	2.364522027374422e-08	1.50228137387249e-07	-1.282328764856677e-08	-1.625927807452846e-08	1.440651619428377e-07	6.151501689240515e-08	1.543964137679593e-08
0.01	-0.03685505110707198	0.05655477256702408	0.9203006674935051	0.3090129485169011	-0.2956576429490976	-0.301276881420602	-0.3882908072511861	0.2502953358214658	0.250295335821436	-0.1744697137008566	-0.1743380354973521	-0.0007807384097799502	0.0004235608721928476	-0.01258329204151439	-0.0216320518277841	-0.008260385087762948	0.08573066497624862	-0.005308608163315401	0.02621313146436453	-0.067846011879774	0.07334654745989248	0.07334654745989445	0.01239771712207506	-8.562097245070257e-05	0.00470620387193271	-0.004198296862802322	0.05571616945350569	-0.04284431432213791	-0.01684632521414895	-0.2191249337967071	0.148109818053365	-0.00130862131284896	0.01569885402671851	3.870332545371669	-2.924380109748629	3.227379982608634	21.33738923422793	-631.8927384828735	-80.5739347411875	-23.19455062382129	-1.22036237689283	-2.095492864947976	-0.8093042088820983	8.354855988495032	-0.5406230594288737	2.597436644707891	-6.675669717049149	7.192742739427803	7.192742739427095	1.170558864545149	0.01016821748513217	0.4930092615011416	-0.4219094909413723	-4.588054895805427e-09	1.094621504154513e-07	6.296757912217793e-08	5.447973392891949e-09	2.826045408705536e-08	5.589578808645623e-09	2.440210297621469e-09
0.02	-0.03704317472000691	0.05623577978652666	0.9201776776355733	0.3102859010685485	-0.2957376728560543	-0.3008871421401848	-0.3892967436373604	0.2513872285875742	0.2513872285875713	-0.174287376617753	-0.1743400268227647	-0.00070710879310028	0.0003612623466960034	-0.02501635838823929	-0.04194695836966361	-0.01630118026726347	0.1683395678641153	-0.01071323060984065	0.05159634442856407	-0.1328711136803452	0.1446998126327852	0.1446998126327816	0.02392436605062833	-0.000340869134749582	0.01014113811445391	-0.008234189756118308	0.0549899779224611	-0.0547030099666047	-0.01728773388760678	-0.2240946643837128	0.1551596583466886	0.008082039545363727	0.0181372152192402	6.479727508612195	-7.285936102433392	3.724330505797844	17.04509086845776	-633.6316166081642	-89.60752325509333	-23.20695192890574	-1.296706434974637	-1.969343496948272	-0.8046096314961578	8.229046993790144	-0.5353399009387835	2.461586524852395	-6.297236610036553	7.120158187362224	7.120158187362235	1.16043035915153	-0.08842952416750369	0.6080252312242692	-0.3750690845865633	-3.282133006535507e-08	6.869616344365355e-08	1.387584458929226e-07	2.715522486031236e-08	-8.7544253768727e-08	-5.033585927511391e-08	-1.055922078155299e-08
0.03	-0.03735445953155495	0.05571911697688401	0.9199751707836024	0.3123705228848335	-0.2958715595395825	-0.3002480964414282	-0.3909387198185321	0.2531826892804809	0.253182689280482	-0.1739929359603344	-0.1743454721582615	-0.000576825406959099	0.0002596480071635663	-0.03715398727655577	-0.06127660209237354	-0.02418104699963167	0.2481599359810311	-0.01601660235951665	0.07610546128105752	-0.1950651585828656	0.2140522682565932	0.2140522682566064	0.03492322962968422	-0.0007155322686269932	0.01590566433953679	-0.0120420305106056	0.04752116400114068	-0.04831529740362914	-0.01631091002437711	-0.2170068370334014	0.1483453673666315	0.006870206822845446	0.02452489864933485	4.19735392012426	-6.446069998913153	3.688734048109513	17.61671638711195	-635.0932454311452	-86.90392756928581	-23.22717738991509	-1.159301472642372	-1.898419072465235	-0.7768217017829202	7.794797882556071	-0.5207358775216852	2.429454898750037	-6.111643833845385	6.79178276063545	6.791782760637906	1.063557590793052	-0.007062131997855941	0.5591861954804067	-0.3766712711337822	-4.604815217874135e-08	6.373098488244219e-08	1.687310669580261e-07	4.282599836393416e-08	-1.562473186109994e-07	-6.898322780485286e-08	-1.357102208382671e-08
0.04	-0.03778452270338003	0.05501242887750629	0.9196944359627728	0.3152406016146583	-0.2960570599537136	-0.2993671834474836	-0.3931888675294296	0.2556614732317803	0.2556614732317837	-0.1735897180204114	-0.1743536796098834	-0.0003891927831013864	0.0001213493200353859	-0.04877203044007895	-0.07995201631667649	-0.03194677403901496	0.3254309505744907	-0.0210359767307769	0.09996980346563958	-0.2545054196247409	0.2813644643102171	0.2813644643102469	0.04567982254915575	-0.0008932923625072961	0.02161098565781921	-0.01557105927525462	0.04005235007981531	-0.04192758484066934	-0.01533408616119857	-0.2099190096830867	0.1415310763865713	0.005658374100310528	0.03091258207943352	1.968882319895348	-5.612949059980019	3.651137187011991	18.1389070337078	-635.7291015393978	-84.13006504700758	-23.25460862396254	-1.192789290015456	-1.838497597267326	-0.7817816928991814	7.719176289098963	-0.4785404252556116	2.332631591270086	-5.746479837907254	6.712106273325467	6.712106273325488	1.11197622723473	-0.04904891616814604	0.5961842498636868	-0.319306686619056	-5.896556288890777e-08	5.950396731938726e-08	1.977589819261061e-07	5.837230840438487e-08	-2.23979215556086e-07	-8.686197634378724e-08	-1.637689287523649e-08
